<svg width="630" height="45" viewBox="0 0 630 45" fill="none" xmlns="http://www.w3.org/2000/svg">
<g opacity="0.72">
<ellipse cx="315.5" cy="23" rx="10.5" ry="2" fill="white"/>
<path d="M315 1C254.078 2.22807 83.1954 5.32367 47.2602 9.69853C11.325 14.0734 -4.52746 19.4226 2.71533 24.7296C9.95812 30.0367 39.7914 34.9317 86.5458 38.4844C133.3 42.0371 193.717 44 256.316 44C318.914 44 379.331 42.0371 426.086 38.4844C472.84 34.9317 502.673 30.0367 509.916 24.7296C517.159 19.4226 501.306 14.0734 465.371 9.69853C429.436 5.32367 375.922 2.22807 315 1ZM315 1C254.078 2.22807 200.564 5.32367 164.629 9.69853C128.694 14.0734 112.841 19.4226 120.084 24.7296C127.327 30.0367 157.16 34.9317 203.914 38.4844C250.669 42.0371 311.086 44 373.684 44C436.283 44 496.7 42.0371 543.454 38.4844C590.209 34.9317 620.042 30.0367 627.285 24.7296C634.527 19.4226 618.675 14.0734 582.74 9.69853C546.805 5.32367 375.922 2.22807 315 1Z" stroke="white" stroke-width="2"/>
<path d="M297.194 44C269.592 43.1288 244.726 40.3215 227.533 36.1353C210.339 31.9491 202.074 26.69 204.379 21.4019C206.684 16.1138 219.39 11.1834 239.975 7.58922C260.559 3.99508 287.518 2 315.5 2C343.482 2 370.441 3.99508 391.025 7.58922C411.61 11.1834 424.316 16.1138 426.621 21.4019C428.926 26.69 420.661 31.9491 403.467 36.1353C386.274 40.3215 361.408 43.1288 333.806 44" stroke="white" stroke-width="2"/>
</g>
</svg>
